<svg xmlns="http://www.w3.org/2000/svg" width="207" height="57.318" viewBox="0 0 207 57.318">
  <g id="Group_65" data-name="Group 65" transform="translate(-32 -40.682)">
    <g id="chef_1_" data-name="chef (1)" transform="translate(32 40.682)">
      <g id="Group_2" data-name="Group 2">
        <g id="Group_1" data-name="Group 1">
          <path id="Path_1" data-name="Path 1" d="M108.881,214.441a1.108,1.108,0,0,0-2.215,0c0,2.908,3.208,6.9,3.574,7.348a1.108,1.108,0,1,0,1.713-1.406C110.765,218.936,108.881,216.043,108.881,214.441Z" transform="translate(-95.591 -191.182)" fill="#f8c628"/>
          <path id="Path_2" data-name="Path 2" d="M313.767,213.333a1.107,1.107,0,0,0-1.108,1.108c0,1.6-1.884,4.493-3.072,5.943a1.108,1.108,0,0,0,1.713,1.4c.366-.447,3.574-4.44,3.574-7.348A1.107,1.107,0,0,0,313.767,213.333Z" transform="translate(-277.218 -191.182)" fill="#f8c628"/>
          <path id="Path_3" data-name="Path 3" d="M225.108,213.333A1.107,1.107,0,0,0,224,214.441v6.645a1.108,1.108,0,0,0,2.215,0v-6.645A1.107,1.107,0,0,0,225.108,213.333Z" transform="translate(-200.742 -191.182)" fill="#f8c628"/>
          <path id="Path_4" data-name="Path 4" d="M36.549,4.43a11.6,11.6,0,0,0-2.1.224,13.247,13.247,0,0,0-20.164,0,11.611,11.611,0,0,0-2.1-.224A12.178,12.178,0,0,0,6.671,27.47L6.65,44.207a4.52,4.52,0,0,0,4.519,4.524h26.4a4.524,4.524,0,0,0,4.519-4.519V27.454A12.176,12.176,0,0,0,36.549,4.43Zm3.323,39.783a2.307,2.307,0,0,1-2.3,2.3h-26.4a2.3,2.3,0,0,1-2.3-2.307l.006-4.338h31Zm.686-18.483a.993.993,0,0,0-.166.085,1.109,1.109,0,0,0-.508.778,1.071,1.071,0,0,0-.012.186V37.656h-31l.014-10.862a1.14,1.14,0,0,0-.011-.182,1.11,1.11,0,0,0-.175-.459,1.1,1.1,0,0,0-.329-.321,1.159,1.159,0,0,0-.174-.09,9.963,9.963,0,0,1,3.985-19.1c.215,0,.442.026.664.044a13.194,13.194,0,0,0-1.772,6.6,1.108,1.108,0,1,0,2.215,0,11.075,11.075,0,1,1,22.151,0,1.108,1.108,0,1,0,2.215,0,13.194,13.194,0,0,0-1.772-6.6c.223-.018.449-.044.664-.044A9.962,9.962,0,0,1,40.557,25.73Z" fill="#f8c628"/>
        </g>
      </g>
    </g>
    <text id="Home_Chef_" data-name="Home Chef " transform="translate(97 86)" fill="#fff" font-size="39" font-family="Gabriola"><tspan x="0" y="0">Home </tspan><tspan y="0" fill="#f7b614">Chef </tspan></text>
  </g>
</svg>
