<svg xmlns="http://www.w3.org/2000/svg" width="70.066" height="57.476" viewBox="0 0 70.066 57.476">
  <g id="hamburger" transform="translate(0 -46)">
    <g id="Group_8" data-name="Group 8" transform="translate(47.349 59.685)">
      <g id="Group_7" data-name="Group 7" transform="translate(0 0)">
        <path id="Path_16" data-name="Path 16" d="M351.072,146.4a1.369,1.369,0,0,0-1.935,0l-2.737,2.737a1.369,1.369,0,1,0,1.935,1.935l2.737-2.737A1.369,1.369,0,0,0,351.072,146.4Z" transform="translate(-345.999 -146)" fill="#282932"/>
      </g>
    </g>
    <g id="Group_10" data-name="Group 10" transform="translate(14.506 59.685)">
      <g id="Group_9" data-name="Group 9" transform="translate(0 0)">
        <path id="Path_17" data-name="Path 17" d="M111.072,146.4a1.369,1.369,0,0,0-1.935,0l-2.737,2.737a1.369,1.369,0,0,0,1.935,1.935l2.737-2.737A1.369,1.369,0,0,0,111.072,146.4Z" transform="translate(-105.999 -146)" fill="#282932"/>
      </g>
    </g>
    <g id="Group_12" data-name="Group 12" transform="translate(40.507 54.211)">
      <g id="Group_11" data-name="Group 11" transform="translate(0 0)">
        <path id="Path_18" data-name="Path 18" d="M301.072,106.4a1.369,1.369,0,0,0-1.935,0l-2.737,2.737a1.369,1.369,0,1,0,1.935,1.935l2.737-2.737A1.369,1.369,0,0,0,301.072,106.4Z" transform="translate(-295.999 -106)" fill="#282932"/>
      </g>
    </g>
    <g id="Group_14" data-name="Group 14" transform="translate(24.085 54.211)">
      <g id="Group_13" data-name="Group 13" transform="translate(0 0)">
        <path id="Path_19" data-name="Path 19" d="M181.072,106.4a1.369,1.369,0,0,0-1.935,0l-2.737,2.737a1.369,1.369,0,1,0,1.935,1.935l2.737-2.737A1.369,1.369,0,0,0,181.072,106.4Z" transform="translate(-175.999 -106)" fill="#282932"/>
      </g>
    </g>
    <g id="Group_16" data-name="Group 16" transform="translate(30.927 59.685)">
      <g id="Group_15" data-name="Group 15" transform="translate(0 0)">
        <path id="Path_20" data-name="Path 20" d="M231.072,146.4a1.369,1.369,0,0,0-1.935,0l-2.737,2.737a1.369,1.369,0,0,0,1.935,1.935l2.737-2.737A1.369,1.369,0,0,0,231.072,146.4Z" transform="translate(-225.999 -146)" fill="#282932"/>
      </g>
    </g>
    <g id="Group_18" data-name="Group 18" transform="translate(0 46)">
      <g id="Group_17" data-name="Group 17" transform="translate(0 0)">
        <path id="Path_21" data-name="Path 21" d="M70.066,88.423a4.11,4.11,0,0,0-4.105-4.105H64.592V79.907c.056-.049.114-.1.169-.146a6.952,6.952,0,0,1,3.953-1.343,1.368,1.368,0,0,0-.017-2.737H68.68a10.445,10.445,0,0,0-4.088.967V73.06a4.1,4.1,0,0,0,2.536-4.3A26.022,26.022,0,0,0,41.328,46H28.738a26.022,26.022,0,0,0-25.8,22.758,4.1,4.1,0,0,0,2.536,4.3v3.527a10.255,10.255,0,0,0-4.123-.906,1.368,1.368,0,0,0,.018,2.737h.018a6.809,6.809,0,0,1,4.05,1.338l.038.033v4.529H4.105a4.105,4.105,0,0,0-.674,8.155,3.891,3.891,0,0,0-.046,2.643,12.314,12.314,0,0,0,11.668,8.361H55.013a12.314,12.314,0,0,0,11.668-8.362,3.89,3.89,0,0,0-.046-2.642A4.105,4.105,0,0,0,70.066,88.423ZM5.654,69.1A23.281,23.281,0,0,1,28.738,48.737h12.59A23.281,23.281,0,0,1,64.412,69.1a1.382,1.382,0,0,1-1.28,1.531l-.027,0c-.023,0-.047,0-.07,0h-56A1.386,1.386,0,0,1,5.654,69.1Zm50.9,8.641a7.173,7.173,0,0,0-10.055,0,4.444,4.444,0,0,1-6.367,0,7.173,7.173,0,0,0-10.055,0,4.444,4.444,0,0,1-6.367,0,7.173,7.173,0,0,0-10.055,0,4.366,4.366,0,0,1-5.441.691v-5.06H61.855v5.139A4.382,4.382,0,0,1,56.55,77.738Zm5.3,3.739v2.841H8.211V81.436a6.886,6.886,0,0,0,2.258.384A7.443,7.443,0,0,0,15.5,79.76a4.444,4.444,0,0,1,6.367,0,7.173,7.173,0,0,0,10.055,0,4.444,4.444,0,0,1,6.367,0,7.173,7.173,0,0,0,10.055,0,4.444,4.444,0,0,1,6.367,0A7.191,7.191,0,0,0,61.855,81.477Zm2.233,12.759a9.578,9.578,0,0,1-9.076,6.5H15.053a9.578,9.578,0,0,1-9.075-6.5,1.356,1.356,0,0,1,1.338-1.709H62.75A1.356,1.356,0,0,1,64.088,94.236Zm1.872-4.445H4.105a1.368,1.368,0,1,1,0-2.737H65.96a1.368,1.368,0,0,1,0,2.737Z" transform="translate(0 -46)" fill="#282932"/>
      </g>
    </g>
  </g>
</svg>
