<svg xmlns="http://www.w3.org/2000/svg" width="68.737" height="69.852" viewBox="0 0 68.737 69.852">
  <g id="birthday-cake" transform="translate(-0.392 0)">
    <path id="Path_100" data-name="Path 100" d="M69.129,158.72V148.41a5.734,5.734,0,0,0-5.728-5.728H58.819V131.226a1.146,1.146,0,0,0-1.146-1.146H50.8a1.146,1.146,0,0,0-1.146,1.146v11.456H39.343V128.935a1.146,1.146,0,0,0-1.146-1.146H31.324a1.146,1.146,0,0,0-1.146,1.146v13.747H19.868V131.226a1.146,1.146,0,0,0-1.146-1.146H11.849a1.146,1.146,0,0,0-1.146,1.146v11.456H6.121A5.735,5.735,0,0,0,.393,148.41v10.31a6.645,6.645,0,0,0,3.437,5.925v12.4H1.539a1.146,1.146,0,1,0,0,2.291H67.983a1.146,1.146,0,1,0,0-2.291H65.692V164.663A6.894,6.894,0,0,0,69.129,158.72ZM51.945,132.371h4.582v10.31H51.945ZM32.47,130.08h4.582v12.6H32.47Zm-19.475,2.291h4.582v10.31H12.995ZM2.684,148.41a3.437,3.437,0,0,1,3.437-3.437H63.4a3.436,3.436,0,0,1,3.437,3.437v10.31a4.61,4.61,0,0,1-2.741,4.2,4.686,4.686,0,0,1-5.081-.954,4.6,4.6,0,0,1-1.342-3.25v-4.582a4.571,4.571,0,0,0-2.536-4.078l-.07-.038a4.375,4.375,0,0,0-.566-.221c-.114-.038-.219-.076-.332-.1a4.416,4.416,0,0,0-.444-.078c-.1-.015-.2-.045-.3-.053-.055,0-.107.008-.161.006s-.114-.017-.173-.017c-.127,0-.249.026-.375.036s-.26.016-.389.038a4.579,4.579,0,0,0-.585.15c-.1.032-.209.055-.309.094a4.391,4.391,0,0,0-.618.309c-.072.041-.149.071-.22.115a4.6,4.6,0,0,0-.742.6,4.552,4.552,0,0,0-1.344,3.241v2.291a4.582,4.582,0,1,1-9.165,0v-2.291a4.571,4.571,0,0,0-2.536-4.078l-.07-.038a4.376,4.376,0,0,0-.566-.221c-.114-.038-.219-.076-.332-.1a4.412,4.412,0,0,0-.444-.078c-.1-.015-.2-.045-.3-.053-.055,0-.107.008-.161.006s-.114-.017-.173-.017c-.127,0-.249.026-.375.036s-.26.016-.389.038a4.589,4.589,0,0,0-.584.15c-.1.032-.21.055-.31.094a4.452,4.452,0,0,0-.615.308c-.073.041-.151.072-.222.115a4.561,4.561,0,0,0-2.086,3.841v6.874a4.582,4.582,0,1,1-9.165,0v-6.874a4.571,4.571,0,0,0-2.536-4.078l-.07-.038a4.375,4.375,0,0,0-.566-.221c-.114-.038-.219-.076-.332-.1a4.421,4.421,0,0,0-.444-.078c-.1-.015-.2-.045-.3-.053s-.22-.011-.335-.011a4.582,4.582,0,0,0-4.582,4.582v4.582a4.59,4.59,0,0,1-1.332,3.24,4.728,4.728,0,0,1-4.281,1.214,4.57,4.57,0,0,1-.8-.248,4.715,4.715,0,0,1-1.408-.957,4.6,4.6,0,0,1-1.342-3.25Zm3.437,28.64V165.5c.115.019.229.024.344.037l.088.01A6.9,6.9,0,0,0,9.52,165.2a6.981,6.981,0,0,0,.85-.364c.059-.029.115-.06.176-.092a7.026,7.026,0,0,0,.646-.4c.067-.045.134-.088.2-.136a6.681,6.681,0,0,0,2.749-5.492v-4.582a2.274,2.274,0,0,1,.672-1.619,2.326,2.326,0,0,1,.376-.3c.024-.015.05-.025.074-.039a2.266,2.266,0,0,1,.352-.176c.036-.013.072-.022.108-.033a2.186,2.186,0,0,1,.343-.086c.055-.009.115-.011.168-.017a2.5,2.5,0,0,1,.29-.01,2.945,2.945,0,0,1,.471.069c.029.007.055.017.082.025a2.5,2.5,0,0,1,1.645,2.382v6.68a6.874,6.874,0,1,0,13.747,0v-6.874a2.285,2.285,0,0,1,1.051-1.923c.02-.012.043-.021.062-.033a2.289,2.289,0,0,1,.365-.181c.032-.012.065-.02.1-.03a2.428,2.428,0,0,1,.344-.089c.055-.008.115-.011.165-.016a2.292,2.292,0,0,1,.291-.01,2.947,2.947,0,0,1,.471.069c.029.007.055.017.082.025a2.5,2.5,0,0,1,1.654,2.382v2.1a6.874,6.874,0,0,0,13.747,0v-2.291a2.274,2.274,0,0,1,.672-1.619,2.327,2.327,0,0,1,.376-.3c.024-.015.05-.025.076-.04a2.35,2.35,0,0,1,.351-.174c.036-.013.073-.022.115-.033a2.138,2.138,0,0,1,.338-.086c.055-.009.115-.011.168-.017a2.5,2.5,0,0,1,.29-.01,2.947,2.947,0,0,1,.471.069c.029.007.055.017.082.025a2.5,2.5,0,0,1,1.644,2.382v4.389a6.881,6.881,0,0,0,2.013,4.87,7,7,0,0,0,.725.616c.074.054.151.1.229.153.192.131.387.253.59.364.081.044.161.086.242.126a7.013,7.013,0,0,0,.709.3c.048.017.1.039.144.055a6.967,6.967,0,0,0,1.948.366h.008a6.841,6.841,0,0,0,.958-.029l.115-.013c.115-.012.229-.017.344-.036V177.05Zm0,0" transform="translate(0 -109.49)" fill="#282932"/>
    <path id="Path_101" data-name="Path 101" d="M206.126,16.008a5.735,5.735,0,0,0,5.728-5.728c0-2.75-3.986-8.66-4.785-9.816a1.189,1.189,0,0,0-1.886,0c-.8,1.156-4.785,7.066-4.785,9.816a5.735,5.735,0,0,0,5.728,5.728Zm0-12.822c1.648,2.576,3.437,5.843,3.437,7.094a3.437,3.437,0,1,1-6.874,0c0-1.251,1.788-4.518,3.437-7.094Zm0,0" transform="translate(-171.365)" fill="#282932"/>
    <path id="Path_102" data-name="Path 102" d="M342.126,32.008a5.735,5.735,0,0,0,5.728-5.728c0-2.75-3.986-8.66-4.785-9.816a1.189,1.189,0,0,0-1.886,0c-.8,1.156-4.785,7.066-4.785,9.816a5.735,5.735,0,0,0,5.728,5.728Zm0-12.822c1.648,2.576,3.437,5.843,3.437,7.094a3.437,3.437,0,0,1-6.874,0C338.689,25.029,340.478,21.763,342.126,19.186Zm0,0" transform="translate(-287.89 -13.709)" fill="#282932"/>
    <path id="Path_103" data-name="Path 103" d="M70.126,32.008a5.735,5.735,0,0,0,5.728-5.728c0-2.75-3.986-8.66-4.785-9.816a1.189,1.189,0,0,0-1.886,0c-.8,1.156-4.785,7.066-4.785,9.816a5.735,5.735,0,0,0,5.728,5.728Zm0-12.822c1.648,2.576,3.437,5.843,3.437,7.094a3.437,3.437,0,1,1-6.874,0C66.689,25.029,68.477,21.763,70.126,19.186Zm0,0" transform="translate(-54.84 -13.709)" fill="#282932"/>
  </g>
</svg>
