<svg xmlns="http://www.w3.org/2000/svg" width="60.601" height="64.484" viewBox="0 0 60.601 64.484">
  <g id="pizza-slice" transform="translate(-15.416)">
    <g id="Group_23" data-name="Group 23" transform="translate(15.416 0)">
      <g id="Group_22" data-name="Group 22">
        <path id="Path_23" data-name="Path 23" d="M382.41,95.831a1.259,1.259,0,1,0-.471-1.51A1.272,1.272,0,0,0,382.41,95.831Z" transform="translate(-335.702 -81.747)" fill="#282932"/>
        <path id="Path_24" data-name="Path 24" d="M67.612,16.595a1.259,1.259,0,0,0-2.007,1.522,38.505,38.505,0,0,1,7.883,22.548L68.6,42.218A51.845,51.845,0,0,0,66.124,31.9h0a38.482,38.482,0,0,0-4.406-8.742l0,0C55.75,14.425,46.255,9.116,33.478,7.363l1.558-4.834a39.212,39.212,0,0,1,22.682,7.778,1.259,1.259,0,1,0,1.5-2.021A41.746,41.746,0,0,0,34.122,0a1.259,1.259,0,0,0-1.2.873L23.251,30.886l-3.34,10.361-.006.02L15.623,54.553a4.263,4.263,0,0,0,1.044,4.329,4.314,4.314,0,0,0,4.379,1.069l18.411-5.843v5.046a5.338,5.338,0,0,0,5.13,5.328l.149,0a5.25,5.25,0,0,0,3.69-1.5,5.193,5.193,0,0,0,1.586-3.75V50.758l6.616-2.1V54.37a4.468,4.468,0,0,0,7.616,3.14,4.4,4.4,0,0,0,1.31-3.14V45.826l9.586-3.042a1.259,1.259,0,0,0,.879-1.2,41.025,41.025,0,0,0-8.405-24.989Zm-7.457,8.766a36.009,36.009,0,0,1,3.266,6.5,3.638,3.638,0,1,1-3.266-6.5ZM26.494,39.29a4.824,4.824,0,0,1-3.756,1.4l2.855-8.859a4.849,4.849,0,0,1,.9.7,4.751,4.751,0,0,1,0,6.759Zm-4.124,17.6a3.592,3.592,0,0,1,6.507-2.065ZM42.8,49.74a4.753,4.753,0,0,1-6.678,0,4.64,4.64,0,0,1,0-6.6,4.753,4.753,0,0,1,6.678,0,4.639,4.639,0,0,1,0,6.6ZM63.912,43.7a1.26,1.26,0,0,0-.878,1.2V54.37a1.9,1.9,0,0,1-.565,1.352,1.949,1.949,0,0,1-3.322-1.352V46.937a1.259,1.259,0,0,0-1.641-1.2l-9.135,2.9a1.259,1.259,0,0,0-.878,1.2v9.4a2.693,2.693,0,0,1-.824,1.945,2.743,2.743,0,0,1-2.013.783,2.8,2.8,0,0,1-2.679-2.81V53.179a7.2,7.2,0,0,0,2.594-1.652h0a7.158,7.158,0,0,0,0-10.176,7.279,7.279,0,0,0-10.227,0,7.159,7.159,0,0,0,0,10.176,7.22,7.22,0,0,0,1.435,1.105L31.35,54.038a6.112,6.112,0,0,0-11.458,3.593,1.774,1.774,0,0,1-1.44-.526,1.731,1.731,0,0,1-.431-1.78l3.93-12.194a7.334,7.334,0,0,0,6.318-2.053,7.27,7.27,0,0,0,0-10.335,7.376,7.376,0,0,0-1.887-1.356L32.693,9.8C44.3,11.307,53.038,15.836,58.7,23.28A6.157,6.157,0,0,0,64.26,34.256a51.266,51.266,0,0,1,1.9,8.735Z" transform="translate(-15.416 0)" fill="#282932"/>
        <path id="Path_25" data-name="Path 25" d="M163.945,116.786a7.5,7.5,0,0,0-2.237-5.36,7.67,7.67,0,0,0-10.775,0,7.542,7.542,0,0,0,0,10.72,7.67,7.67,0,0,0,10.775,0,7.5,7.5,0,0,0,2.237-5.36Zm-4.011,3.572a5.144,5.144,0,0,1-7.227,0,5.022,5.022,0,0,1,0-7.144,5.144,5.144,0,0,1,7.227,0,5.022,5.022,0,0,1,0,7.144Z" transform="translate(-131.91 -95.459)" fill="#282932"/>
        <path id="Path_26" data-name="Path 26" d="M240.446,241.125a6.708,6.708,0,0,0-9.474-.123,1.259,1.259,0,0,0-.029,1.781l7.54,7.786a1.26,1.26,0,0,0,1.781.029,6.707,6.707,0,0,0,.182-9.473Zm-1.162,6.65-5.522-5.7a4.148,4.148,0,0,1,5.522,5.7Z" transform="translate(-203.489 -208.99)" fill="#282932"/>
      </g>
    </g>
  </g>
</svg>
