<svg xmlns="http://www.w3.org/2000/svg" width="52.956" height="45.309" viewBox="0 0 52.956 45.309">
  <path id="bars-solid" d="M1.891,68.322H51.065a1.871,1.871,0,0,0,1.891-1.849V61.849A1.871,1.871,0,0,0,51.065,60H1.891A1.871,1.871,0,0,0,0,61.849v4.623A1.871,1.871,0,0,0,1.891,68.322Zm0,18.493H38.065a1.871,1.871,0,0,0,1.891-1.849V80.343a1.871,1.871,0,0,0-1.891-1.849H1.891A1.871,1.871,0,0,0,0,80.343v4.623A1.871,1.871,0,0,0,1.891,86.816Zm0,18.493H51.065a1.871,1.871,0,0,0,1.891-1.849V98.836a1.871,1.871,0,0,0-1.891-1.849H1.891A1.871,1.871,0,0,0,0,98.836v4.623A1.871,1.871,0,0,0,1.891,105.309Z" transform="translate(0 -60)" fill="#fff"/>
</svg>
